<svg xmlns="http://www.w3.org/2000/svg" width="1200" height="500"
     viewBox="0 0 1200 500" role="img" aria-label="Terminal Hub — 专为 AI CLI 打造的终端管理工作台">
<title>Terminal Hub — 专为 AI CLI 打造的终端管理工作台</title>
<desc>Claude Code、Codex CLI 和 Shell 会话围绕 Terminal Hub 汇聚。这是一幅产品定位概念图，不是界面截图。</desc>
<defs>
<linearGradient id="canvas" x2="1" y2="1"><stop stop-color="#0B1422"/><stop offset="1" stop-color="#142C43"/></linearGradient>
<radialGradient id="halo"><stop stop-color="#388CCC" stop-opacity=".22"/><stop offset="1" stop-color="#388CCC" stop-opacity="0"/></radialGradient>
<pattern id="grid" width="36" height="36" patternUnits="userSpaceOnUse"><path d="M36 0H0V36" fill="none" stroke="#9EC8E9" stroke-opacity=".045"/></pattern>
<clipPath id="frame"><rect width="1200" height="500" rx="24"/></clipPath>
</defs>
<g clip-path="url(#frame)">
<rect width="1200" height="500" fill="url(#canvas)"/>
<rect width="1200" height="500" fill="url(#grid)"/>
<ellipse cx="934" cy="251" rx="342" ry="330" fill="url(#halo)"/>
<path d="M665 64V436" stroke="#92B2CE" stroke-opacity=".16"/>
<path d="M66 63H94" stroke="#4DE0C7" stroke-width="3"/>
<text x="108" y="68" fill="#A9BED5" font-family="Segoe UI, Inter, Arial, Microsoft YaHei, sans-serif" font-size="12" letter-spacing="2">BUILT AROUND YOUR AI CLI</text><text x="63" y="173" fill="#F1F6FC" font-family="Segoe UI, Inter, Arial, Microsoft YaHei, sans-serif" font-size="68" font-weight="700" letter-spacing="-2">Terminal Hub</text><text x="66" y="245" fill="#B7CBDD" font-family="Segoe UI, Inter, Arial, Microsoft YaHei, sans-serif" font-size="27" >专为 AI CLI 打造的</text><text x="63" y="300" fill="#F1F6FC" font-family="Segoe UI, Inter, Arial, Microsoft YaHei, sans-serif" font-size="44" font-weight="600">终端管理工作台</text><path d="M66 359H595" stroke="#9EBAD2" stroke-opacity=".2"/><text x="66" y="399" fill="#B7CBDD" font-family="Segoe UI, Inter, Arial, Microsoft YaHei, sans-serif" font-size="12" letter-spacing="1">LOCAL SHELLS   /   REAL PTYs   /   OPEN SOURCE</text><text x="66" y="440" fill="#8DA8C2" font-family="Segoe UI, Inter, Arial, Microsoft YaHei, sans-serif" font-size="17" >把注意力留给任务。</text><g fill="none" stroke="#78A9CC" stroke-width="1.5">
<circle cx="924" cy="252" r="150" stroke-opacity=".19"/>
<circle cx="924" cy="252" r="100" stroke-dasharray="3 9" stroke-opacity=".3"/>
<path d="M840 130C896 130 870 223 924 223" stroke="#F0C9A5"/>
<path d="M1016 234H986" stroke="#80BDF0"/>
<path d="M848 372C917 372 898 294 924 294" stroke="#4DE0C7"/>
</g>
<circle cx="924" cy="252" r="68" fill="#182F47" stroke="#3D6686"/>
<g transform="translate(874 202) scale(1)">
<rect width="100" height="100" rx="22" fill="#2476E9"/>
<g fill="#2476E9" stroke="#F5FAFF" stroke-width="4" stroke-linejoin="round">
<rect x="9" y="17" width="34" height="27" rx="5" transform="rotate(-12 26 30)"/>
<rect x="57" y="17" width="34" height="27" rx="5" transform="rotate(12 74 30)"/>
<rect x="25" y="51" width="50" height="35" rx="6"/>
</g>
<path d="M35 63L43 69L35 75M49 76H62" fill="none" stroke="#F5FAFF" stroke-width="3" stroke-linecap="round" stroke-linejoin="round"/>
<path d="M37 44L44 51M63 44L56 51" stroke="#F5FAFF" stroke-width="3"/>
</g><rect x="710" y="102" width="170" height="56" rx="12" fill="#101F31" stroke="#F0C9A5" stroke-opacity=".65"/><text x="730" y="137" fill="#F0C9A5" font-family="Cascadia Mono, Consolas, DejaVu Sans Mono, monospace" font-size="22" >$ claude</text><rect x="1000" y="206" width="166" height="56" rx="12" fill="#101F31" stroke="#80BDF0" stroke-opacity=".65"/><text x="1020" y="241" fill="#80BDF0" font-family="Cascadia Mono, Consolas, DejaVu Sans Mono, monospace" font-size="22" >$ codex</text><rect x="728" y="344" width="152" height="56" rx="12" fill="#101F31" stroke="#4DE0C7" stroke-opacity=".65"/><text x="748" y="379" fill="#4DE0C7" font-family="Cascadia Mono, Consolas, DejaVu Sans Mono, monospace" font-size="22" >$ shell</text><text x="925" y="442" fill="#ACC3D8" font-family="Segoe UI, Inter, Arial, Microsoft YaHei, sans-serif" font-size="12" text-anchor="middle" letter-spacing="1.6">MANY SESSIONS. ONE WORKBENCH.</text></g><rect x=".5" y=".5" width="1199" height="499" rx="24" fill="none" stroke="#4C6D8B" stroke-opacity=".6"/>
</svg>
